<svg width="150" height="150" viewBox="0 0 150 150" fill="none" xmlns="http://www.w3.org/2000/svg">
<path d="M75 143.75C40.2687 136.031 12.5 103.262 12.5 68.75V31.25L75 6.25L137.5 31.25V68.75C137.5 103.275 109.731 136.031 75 143.75ZM25 37.5V68.75C25.3572 83.2008 30.4398 97.1365 39.4699 108.424C48.5 119.712 60.9801 127.729 75 131.25C89.0199 127.729 101.5 119.712 110.53 108.424C119.56 97.1365 124.643 83.2008 125 68.75V37.5L75 18.75L25 37.5Z" fill="black"/>
<path d="M75 68.75C83.6294 68.75 90.625 61.7544 90.625 53.125C90.625 44.4956 83.6294 37.5 75 37.5C66.3706 37.5 59.375 44.4956 59.375 53.125C59.375 61.7544 66.3706 68.75 75 68.75Z" fill="black"/>
<path d="M43.75 93.75C46.8306 99.3638 51.3475 104.058 56.8384 107.353C62.3293 110.647 68.597 112.424 75 112.5C81.403 112.424 87.6707 110.647 93.1616 107.353C98.6525 104.058 103.169 99.3638 106.25 93.75C106.094 81.9 85.3625 75 75 75C64.5812 75 43.9063 81.9 43.75 93.75Z" fill="black"/>
</svg>
