<svg width="36" height="37" viewBox="0 0 36 37" fill="none" xmlns="http://www.w3.org/2000/svg">
<path d="M0.38488 20.0078L28.543 20.0078L11.6895 35.4453C11.42 35.6941 11.5836 36.1562 11.9398 36.1562H16.1989C16.3866 36.1562 16.5646 36.0852 16.7042 35.9582L34.8907 19.307C35.0573 19.1547 35.1909 18.9663 35.2824 18.7547C35.374 18.5431 35.4214 18.3133 35.4214 18.0807C35.4214 17.8481 35.374 17.6182 35.2824 17.4066C35.1909 17.195 35.0573 17.0067 34.8907 16.8543L16.5983 0.101562C16.5261 0.0355453 16.4395 0 16.3481 0H11.9446C11.5885 0 11.4248 0.467186 11.6943 0.710938L28.543 16.1484L0.38488 16.1484C0.17313 16.1484 -0.00012207 16.3312 -0.00012207 16.5547V19.6016C-0.00012207 19.825 0.17313 20.0078 0.38488 20.0078Z" fill="black"/>
</svg>
