<svg width="461" height="443" viewBox="0 0 461 443" fill="none" xmlns="http://www.w3.org/2000/svg">
<path d="M144.062 152.281V124.594C144.062 102.564 153.169 81.4369 169.379 65.8597C185.59 50.2825 207.575 41.5313 230.5 41.5312V41.5312C253.425 41.5313 275.41 50.2825 291.621 65.8597C307.831 81.4369 316.938 102.564 316.938 124.594V152.281M72.0312 152.281C68.2105 152.281 64.5462 153.74 61.8445 156.336C59.1428 158.932 57.625 162.453 57.625 166.125V353.016C57.625 379.18 80.8191 401.469 108.047 401.469H352.953C380.181 401.469 403.375 380.262 403.375 354.097V166.125C403.375 162.453 401.857 158.932 399.156 156.336C396.454 153.74 392.79 152.281 388.969 152.281H72.0312Z" stroke="black" stroke-width="32" stroke-linecap="round" stroke-linejoin="round"/>
</svg>
