<svg width="223" height="36" viewBox="0 0 223 36" fill="none" xmlns="http://www.w3.org/2000/svg">
<path d="M10.144 0.471998C11.84 0.471998 13.84 0.695999 16.144 1.144L17.344 1.384L17.152 5.512C14.624 5.256 12.752 5.128 11.536 5.128C9.104 5.128 7.472 5.672 6.64 6.76C5.808 7.848 5.392 9.896 5.392 12.904C5.392 15.912 5.792 17.992 6.592 19.144C7.392 20.296 9.056 20.872 11.584 20.872L17.2 20.488L17.344 24.664C14.112 25.24 11.68 25.528 10.048 25.528C6.4 25.528 3.824 24.552 2.32 22.6C0.848 20.616 0.112 17.384 0.112 12.904C0.112 8.424 0.896 5.24 2.464 3.352C4.032 1.432 6.592 0.471998 10.144 0.471998ZM40.1624 8.392V19.336C40.1944 20.04 40.3704 20.568 40.6904 20.92C41.0424 21.24 41.5704 21.448 42.2744 21.544L42.1304 25.528C39.3784 25.528 37.2504 24.936 35.7464 23.752C33.1864 24.936 30.6104 25.528 28.0184 25.528C23.2504 25.528 20.8664 22.984 20.8664 17.896C20.8664 15.464 21.5064 13.704 22.7864 12.616C24.0984 11.528 26.0984 10.872 28.7864 10.648L34.9784 10.12V8.392C34.9784 7.112 34.6904 6.216 34.1144 5.704C33.5704 5.192 32.7544 4.936 31.6664 4.936C29.6184 4.936 27.0584 5.064 23.9864 5.32L22.4504 5.416L22.2584 1.72C25.7464 0.887999 28.9464 0.471998 31.8584 0.471998C34.8024 0.471998 36.9144 1.112 38.1944 2.392C39.5064 3.64 40.1624 5.64 40.1624 8.392ZM29.4104 14.344C27.2024 14.536 26.0984 15.736 26.0984 17.944C26.0984 20.152 27.0744 21.256 29.0264 21.256C30.6264 21.256 32.3224 21 34.1144 20.488L34.9784 20.2V13.816L29.4104 14.344ZM155.569 8.392V19.336C155.601 20.04 155.777 20.568 156.097 20.92C156.449 21.24 156.977 21.448 157.681 21.544L157.537 25.528C154.785 25.528 152.657 24.936 151.153 23.752C148.593 24.936 146.017 25.528 143.425 25.528C138.657 25.528 136.273 22.984 136.273 17.896C136.273 15.464 136.913 13.704 138.193 12.616C139.505 11.528 141.505 10.872 144.193 10.648L150.385 10.12V8.392C150.385 7.112 150.097 6.216 149.521 5.704C148.977 5.192 148.161 4.936 147.073 4.936C145.025 4.936 142.465 5.064 139.393 5.32L137.857 5.416L137.665 1.72C141.153 0.887999 144.353 0.471998 147.265 0.471998C150.209 0.471998 152.321 1.112 153.601 2.392C154.913 3.64 155.569 5.64 155.569 8.392ZM144.817 14.344C142.609 14.536 141.505 15.736 141.505 17.944C141.505 20.152 142.481 21.256 144.433 21.256C146.033 21.256 147.729 21 149.521 20.488L150.385 20.2V13.816L144.817 14.344ZM167.369 25H162.137V1H167.321V2.488C169.593 1.144 171.673 0.471998 173.561 0.471998C176.345 0.471998 178.377 1.256 179.657 2.824C182.569 1.256 185.465 0.471998 188.345 0.471998C191.225 0.471998 193.257 1.368 194.441 3.16C195.625 4.92 196.217 7.912 196.217 12.136V25H191.033V12.28C191.033 9.688 190.761 7.848 190.217 6.76C189.705 5.672 188.617 5.128 186.953 5.128C185.513 5.128 183.961 5.448 182.297 6.088L181.481 6.424C181.737 7.064 181.865 9.112 181.865 12.568V25H176.681V12.664C176.681 9.816 176.425 7.848 175.913 6.76C175.401 5.672 174.281 5.128 172.553 5.128C170.953 5.128 169.465 5.448 168.089 6.088L167.369 6.376V25ZM220.116 8.392V19.336C220.148 20.04 220.324 20.568 220.644 20.92C220.996 21.24 221.524 21.448 222.228 21.544L222.084 25.528C219.332 25.528 217.204 24.936 215.7 23.752C213.14 24.936 210.564 25.528 207.972 25.528C203.204 25.528 200.82 22.984 200.82 17.896C200.82 15.464 201.46 13.704 202.74 12.616C204.052 11.528 206.052 10.872 208.74 10.648L214.932 10.12V8.392C214.932 7.112 214.644 6.216 214.068 5.704C213.524 5.192 212.708 4.936 211.62 4.936C209.572 4.936 207.012 5.064 203.94 5.32L202.404 5.416L202.212 1.72C205.7 0.887999 208.9 0.471998 211.812 0.471998C214.756 0.471998 216.868 1.112 218.148 2.392C219.46 3.64 220.116 5.64 220.116 8.392ZM209.364 14.344C207.156 14.536 206.052 15.736 206.052 17.944C206.052 20.152 207.028 21.256 208.98 21.256C210.58 21.256 212.276 21 214.068 20.488L214.932 20.2V13.816L209.364 14.344Z" fill="black"/>
<path d="M63.3865 5.944C59.6105 5.432 56.8745 5.176 55.1785 5.176C53.4825 5.176 52.2985 5.384 51.6265 5.8C50.9865 6.184 50.6665 6.808 50.6665 7.672C50.6665 8.536 51.0185 9.144 51.7225 9.496C52.4585 9.848 54.1545 10.264 56.8105 10.744C59.4985 11.192 61.4025 11.912 62.5225 12.904C63.6425 13.896 64.2025 15.656 64.2025 18.184C64.2025 20.712 63.3865 22.568 61.7545 23.752C60.1545 24.936 57.8025 25.528 54.6985 25.528C52.7465 25.528 50.2825 25.256 47.3065 24.712L45.8185 24.472L46.0105 20.104C49.8505 20.616 52.6185 20.872 54.3145 20.872C56.0105 20.872 57.2105 20.664 57.9145 20.248C58.6505 19.832 59.0185 19.144 59.0185 18.184C59.0185 17.224 58.6665 16.568 57.9625 16.216C57.2905 15.832 55.6425 15.432 53.0185 15.016C50.4265 14.568 48.5225 13.88 47.3065 12.952C46.0905 12.024 45.4825 10.328 45.4825 7.864C45.4825 5.4 46.3145 3.56 47.9785 2.344C49.6745 1.128 51.8345 0.519998 54.4585 0.519998C56.5065 0.519998 59.0185 0.775998 61.9945 1.288L63.4825 1.576L63.3865 5.944Z" fill="#399B39"/>
<path d="M69.2305 35.32V1H74.4145V2.488C76.6225 1.144 78.6865 0.471998 80.6065 0.471998C83.7745 0.471998 86.0945 1.448 87.5665 3.4C89.0385 5.32 89.7745 8.568 89.7745 13.144C89.7745 17.688 88.9265 20.888 87.2305 22.744C85.5665 24.6 82.8305 25.528 79.0225 25.528C77.7105 25.528 76.1905 25.384 74.4625 25.096V35.32H69.2305ZM79.6945 5.128C78.1905 5.128 76.6865 5.464 75.1825 6.136L74.4625 6.472V20.632C75.7425 20.888 77.1505 21.016 78.6865 21.016C80.8625 21.016 82.3665 20.392 83.1985 19.144C84.0305 17.896 84.4465 15.768 84.4465 12.76C84.4465 7.672 82.8625 5.128 79.6945 5.128Z" fill="#3284E4"/>
<path d="M96.3078 3.592C97.9718 1.512 100.724 0.471998 104.564 0.471998C108.404 0.471998 111.14 1.512 112.772 3.592C114.436 5.672 115.268 8.792 115.268 12.952C115.268 17.112 114.468 20.248 112.868 22.36C111.268 24.472 108.5 25.528 104.564 25.528C100.628 25.528 97.8598 24.472 96.2598 22.36C94.6598 20.248 93.8598 17.112 93.8598 12.952C93.8598 8.792 94.6758 5.672 96.3078 3.592ZM100.244 19.192C100.98 20.472 102.42 21.112 104.564 21.112C106.708 21.112 108.148 20.472 108.884 19.192C109.62 17.912 109.988 15.816 109.988 12.904C109.988 9.992 109.588 7.928 108.788 6.712C108.02 5.496 106.612 4.888 104.564 4.888C102.516 4.888 101.092 5.496 100.292 6.712C99.5238 7.928 99.1398 9.992 99.1398 12.904C99.1398 15.816 99.5078 17.912 100.244 19.192Z" fill="#E0C323"/>
<path d="M120.465 25V1H125.649V3.88C128.369 2.12 131.089 0.983998 133.809 0.471998V5.704C131.057 6.248 128.705 6.952 126.753 7.816L125.697 8.248V25H120.465Z" fill="#E94138"/>
</svg>
