<svg width="170" height="170" viewBox="0 0 170 170" fill="none" xmlns="http://www.w3.org/2000/svg">
<path d="M58.4375 47.8125C61.3715 47.8125 63.75 45.434 63.75 42.5C63.75 39.566 61.3715 37.1875 58.4375 37.1875C55.5035 37.1875 53.125 39.566 53.125 42.5C53.125 45.434 55.5035 47.8125 58.4375 47.8125Z" fill="black"/>
<path d="M58.4375 90.3125C61.3715 90.3125 63.75 87.934 63.75 85C63.75 82.066 61.3715 79.6875 58.4375 79.6875C55.5035 79.6875 53.125 82.066 53.125 85C53.125 87.934 55.5035 90.3125 58.4375 90.3125Z" fill="black"/>
<path d="M58.4375 132.812C61.3715 132.812 63.75 130.434 63.75 127.5C63.75 124.566 61.3715 122.188 58.4375 122.188C55.5035 122.188 53.125 124.566 53.125 127.5C53.125 130.434 55.5035 132.812 58.4375 132.812Z" fill="black"/>
<path d="M127.5 15.9375H42.5C39.6821 15.9375 36.9796 17.0569 34.987 19.0495C32.9944 21.0421 31.875 23.7446 31.875 26.5625V143.438C31.875 146.255 32.9944 148.958 34.987 150.951C36.9796 152.943 39.6821 154.062 42.5 154.062H95.625V143.438H42.5V111.562H138.125V26.5625C138.125 23.7446 137.006 21.0421 135.013 19.0495C133.02 17.0569 130.318 15.9375 127.5 15.9375ZM127.5 100.938H42.5V69.0625H127.5V100.938ZM127.5 58.4375H42.5V26.5625H127.5V58.4375Z" fill="black"/>
<path d="M154.062 129.705L146.551 122.188L132.812 135.931L119.074 122.188L111.562 129.705L125.301 143.438L111.562 157.176L119.074 164.688L132.812 150.949L146.551 164.688L154.062 157.176L140.324 143.438L154.062 129.705Z" fill="black"/>
</svg>
