<svg width="162" height="162" viewBox="0 0 162 162" fill="none" xmlns="http://www.w3.org/2000/svg">
<path d="M149.253 43.6591L98.6276 15.8154C97.8801 15.4041 97.0407 15.1885 96.1875 15.1885C95.3343 15.1885 94.4949 15.4041 93.7474 15.8154L43.1224 43.6591C42.3286 44.0961 41.6668 44.7382 41.2058 45.5182C40.7448 46.2983 40.5016 47.1878 40.5016 48.0939C40.5016 49 40.7448 49.8894 41.2058 50.6695C41.6668 51.4496 42.3286 52.0916 43.1224 52.5286L91.125 78.9295V133.194L75.7553 124.74L70.875 133.605L93.7474 146.185C94.4946 146.597 95.3341 146.813 96.1875 146.813C97.0409 146.813 97.8804 146.597 98.6276 146.185L149.253 118.341C150.047 117.904 150.709 117.262 151.17 116.482C151.631 115.702 151.875 114.813 151.875 113.906V48.0939C151.875 47.1876 151.631 46.298 151.17 45.5179C150.709 44.7379 150.047 44.0959 149.253 43.6591ZM96.1875 26.0315L136.308 48.0939L96.1875 70.1562L56.0672 48.0939L96.1875 26.0315ZM141.75 110.914L101.25 133.189V78.9245L141.75 56.6495V110.914Z" fill="black"/>
<path d="M50.625 81H10.125V70.875H50.625V81ZM60.75 121.5H20.25V111.375H60.75V121.5ZM70.875 101.25H30.375V91.125H70.875V101.25Z" fill="black"/>
</svg>
