<svg width="128" height="128" viewBox="0 0 128 128" fill="none" xmlns="http://www.w3.org/2000/svg">
<g clip-path="url(#clip0_318_19)">
<path d="M68.2133 112L16 59.7866V70.4533C16 73.28 17.12 76 19.1467 77.9733L60.6933 119.52C64.8533 123.68 71.6267 123.68 75.7867 119.52L108.907 86.4C113.067 82.24 113.067 75.4666 108.907 71.3066L68.2133 112Z" fill="black"/>
<path d="M60.6933 92.8533C64.8533 97.0133 71.6267 97.0133 75.7867 92.8533L108.907 59.7333C113.067 55.5733 113.067 48.8 108.907 44.64L67.36 3.09333C65.3341 1.11628 62.6174 0.00664174 59.7867 0L26.6667 0C20.8 0 16 4.8 16 10.6667V43.7867C16 46.6133 17.12 49.3333 19.1467 51.3067L60.6933 92.8533V92.8533ZM38.6667 16C40.4348 16 42.1305 16.7024 43.3807 17.9526C44.631 19.2029 45.3333 20.8986 45.3333 22.6667C45.3333 24.4348 44.631 26.1305 43.3807 27.3807C42.1305 28.631 40.4348 29.3333 38.6667 29.3333C36.8986 29.3333 35.2029 28.631 33.9526 27.3807C32.7024 26.1305 32 24.4348 32 22.6667C32 20.8986 32.7024 19.2029 33.9526 17.9526C35.2029 16.7024 36.8986 16 38.6667 16Z" fill="black"/>
</g>
<defs>
<clipPath id="clip0_318_19">
<rect width="128" height="128" fill="white"/>
</clipPath>
</defs>
</svg>
