<svg width="147" height="147" viewBox="0 0 147 147" fill="none" xmlns="http://www.w3.org/2000/svg">
<path d="M73.5 79.625C75.2354 79.625 76.6911 79.037 77.8671 77.861C79.039 76.6891 79.625 75.2354 79.625 73.5V48.8469C79.625 47.1115 79.039 45.6823 77.8671 44.5594C76.6911 43.4365 75.2354 42.875 73.5 42.875C71.7646 42.875 70.3109 43.461 69.139 44.6329C67.963 45.8089 67.375 47.2646 67.375 49V73.6531C67.375 75.3885 67.963 76.8177 69.139 77.9406C70.3109 79.0635 71.7646 79.625 73.5 79.625ZM73.5 104.125C75.2354 104.125 76.6911 103.537 77.8671 102.361C79.039 101.189 79.625 99.7354 79.625 98C79.625 96.2646 79.039 94.8089 77.8671 93.6329C76.6911 92.461 75.2354 91.875 73.5 91.875C71.7646 91.875 70.3109 92.461 69.139 93.6329C67.963 94.8089 67.375 96.2646 67.375 98C67.375 99.7354 67.963 101.189 69.139 102.361C70.3109 103.537 71.7646 104.125 73.5 104.125ZM73.5 134.75C65.0271 134.75 57.0646 133.141 49.6125 129.923C42.1604 126.71 35.6781 122.347 30.1656 116.834C24.6531 111.322 20.2901 104.84 17.0765 97.3875C13.8588 89.9354 12.25 81.9729 12.25 73.5C12.25 65.0271 13.8588 57.0646 17.0765 49.6125C20.2901 42.1604 24.6531 35.6781 30.1656 30.1656C35.6781 24.6531 42.1604 20.288 49.6125 17.0704C57.0646 13.8568 65.0271 12.25 73.5 12.25C81.9729 12.25 89.9354 13.8568 97.3875 17.0704C104.84 20.288 111.322 24.6531 116.834 30.1656C122.347 35.6781 126.71 42.1604 129.923 49.6125C133.141 57.0646 134.75 65.0271 134.75 73.5C134.75 81.9729 133.141 89.9354 129.923 97.3875C126.71 104.84 122.347 111.322 116.834 116.834C111.322 122.347 104.84 126.71 97.3875 129.923C89.9354 133.141 81.9729 134.75 73.5 134.75ZM73.5 122.5C87.0771 122.5 98.639 117.729 108.186 108.186C117.729 98.639 122.5 87.0771 122.5 73.5C122.5 59.9229 117.729 48.361 108.186 38.8141C98.639 29.2714 87.0771 24.5 73.5 24.5C59.9229 24.5 48.363 29.2714 38.8202 38.8141C29.2734 48.361 24.5 59.9229 24.5 73.5C24.5 87.0771 29.2734 98.639 38.8202 108.186C48.363 117.729 59.9229 122.5 73.5 122.5Z" fill="white"/>
</svg>
