<svg width="147" height="147" viewBox="0 0 147 147" fill="none" xmlns="http://www.w3.org/2000/svg">
<path d="M67.375 55.125H79.625V42.875H67.375M73.5 122.5C46.4888 122.5 24.5 100.511 24.5 73.5C24.5 46.4888 46.4888 24.5 73.5 24.5C100.511 24.5 122.5 46.4888 122.5 73.5C122.5 100.511 100.511 122.5 73.5 122.5ZM73.5 12.25C65.4565 12.25 57.4918 13.8343 50.0606 16.9124C42.6294 19.9905 35.8773 24.5021 30.1897 30.1897C18.7031 41.6763 12.25 57.2555 12.25 73.5C12.25 89.7445 18.7031 105.324 30.1897 116.81C35.8773 122.498 42.6294 127.01 50.0606 130.088C57.4918 133.166 65.4565 134.75 73.5 134.75C89.7445 134.75 105.324 128.297 116.81 116.81C128.297 105.324 134.75 89.7445 134.75 73.5C134.75 65.4565 133.166 57.4918 130.088 50.0606C127.01 42.6294 122.498 35.8773 116.81 30.1897C111.123 24.5021 104.371 19.9905 96.9394 16.9124C89.5082 13.8343 81.5435 12.25 73.5 12.25M67.375 104.125H79.625V67.375H67.375V104.125Z" fill="black"/>
</svg>
