<svg width="128" height="128" viewBox="0 0 128 128" fill="none" xmlns="http://www.w3.org/2000/svg">
<path d="M37.3335 117.333C34.4002 117.333 31.8899 116.29 29.8028 114.203C27.7122 112.112 26.6668 109.6 26.6668 106.667C26.6668 103.733 27.7122 101.221 29.8028 99.1307C31.8899 97.0436 34.4002 96 37.3335 96C40.2668 96 42.7771 97.0436 44.8642 99.1307C46.9548 101.221 48.0002 103.733 48.0002 106.667C48.0002 109.6 46.9548 112.112 44.8642 114.203C42.7771 116.29 40.2668 117.333 37.3335 117.333ZM90.6668 117.333C87.7335 117.333 85.2233 116.29 83.1362 114.203C81.0455 112.112 80.0002 109.6 80.0002 106.667C80.0002 103.733 81.0455 101.221 83.1362 99.1307C85.2233 97.0436 87.7335 96 90.6668 96C93.6002 96 96.1122 97.0436 98.2028 99.1307C100.29 101.221 101.333 103.733 101.333 106.667C101.333 109.6 100.29 112.112 98.2028 114.203C96.1122 116.29 93.6002 117.333 90.6668 117.333ZM64.0002 50.6667C62.4891 50.6667 61.2233 50.1547 60.2028 49.1307C59.1788 48.1103 58.6668 46.8445 58.6668 45.3334C58.6668 43.8223 59.1788 42.5547 60.2028 41.5307C61.2233 40.5103 62.4891 40 64.0002 40C65.5113 40 66.7788 40.5103 67.8028 41.5307C68.8233 42.5547 69.3335 43.8223 69.3335 45.3334C69.3335 46.8445 68.8233 48.1103 67.8028 49.1307C66.7788 50.1547 65.5113 50.6667 64.0002 50.6667ZM58.6668 32V5.33337H69.3335V32H58.6668ZM37.3335 90.6667C33.2446 90.6667 30.1566 88.9103 28.0695 85.3974C25.9788 81.888 25.9557 78.4 28.0002 74.9334L35.2002 61.8667L16.0002 21.3334H10.6668C9.15572 21.3334 7.88994 20.8214 6.8695 19.7974C5.8455 18.7769 5.3335 17.5112 5.3335 16C5.3335 14.4889 5.8455 13.2214 6.8695 12.1974C7.88994 11.1769 9.15572 10.6667 10.6668 10.6667H19.4668C20.4446 10.6667 21.3779 10.9334 22.2668 11.4667C23.1557 12 23.8224 12.7556 24.2668 13.7334L45.4668 58.6667H82.9335L102.133 24C102.578 23.2 103.2 22.5547 104 22.064C104.8 21.5769 105.689 21.3334 106.667 21.3334C108.711 21.3334 110.246 22.1992 111.27 23.9307C112.29 25.6658 112.311 27.4223 111.333 29.2L92.2668 63.7334C91.2891 65.5112 89.9771 66.8889 88.3308 67.8667C86.6882 68.8445 84.8891 69.3334 82.9335 69.3334H43.2002L37.3335 80H96.0002C97.5113 80 98.7771 80.5103 99.7975 81.5307C100.821 82.5547 101.333 83.8223 101.333 85.3334C101.333 86.8445 100.821 88.1103 99.7975 89.1307C98.7771 90.1547 97.5113 90.6667 96.0002 90.6667H37.3335Z" fill="black"/>
</svg>
