<svg width="497" height="512" viewBox="0 0 497 512" fill="none" xmlns="http://www.w3.org/2000/svg">
<path d="M358.1 24.9701C386.2 -3.14693 431.8 -3.14693 459.9 24.9701L472 37.0901C500.1 65.2101 500.1 110.8 472 138.9L274.8 336.2C266.1 344.8 255.4 351.1 243.6 354.5L143.6 383.1C135.2 385.5 126.2 383.1 120 376.1C113.9 370.8 111.5 361.8 113.9 353.4L142.5 253.4C145.9 241.6 152.2 230.9 160.8 222.2L358.1 24.9701ZM425.1 58.9101C416.6 49.5401 401.4 49.5401 392 58.9101L362.9 88.0001L409 134.1L438.1 104.1C447.5 95.6001 447.5 80.4001 438.1 71.0301L425.1 58.9101V58.9101ZM188.7 266.6L171.9 325.1L230.4 308.3C234.4 307.2 237.9 305.1 240.8 302.2L375.1 168L329 121.9L194.8 256.2C191.9 259.1 189.8 262.6 188.7 266.6V266.6ZM185 64.0001C198.3 64.0001 209 74.7501 209 88.0001C209 101.3 198.3 112 185 112H73C50.91 112 33 129.9 33 152V424C33 446.1 50.91 464 73 464H345C367.1 464 385 446.1 385 424V312C385 298.7 395.7 288 409 288C422.3 288 433 298.7 433 312V424C433 472.6 393.6 512 345 512H73C24.4 512 -15 472.6 -15 424V152C-15 103.4 24.4 64.0001 73 64.0001H185Z" fill="black"/>
</svg>
