<svg width="467" height="467" viewBox="0 0 467 467" fill="none" xmlns="http://www.w3.org/2000/svg">
<path d="M44.1602 219.373C46.7579 171.637 62.6797 129.651 90.9915 98.9164C121.857 65.38 168.82 43.7812 233.485 43.7812C298.135 43.7812 345.098 65.38 375.978 98.9164C407.048 132.643 423.189 179.912 423.189 233.471C423.189 287.044 407.048 334.314 375.978 368.054C345.098 401.591 298.15 423.19 233.485 423.19C168.835 423.19 121.872 401.591 90.9915 368.054C89.8125 366.775 88.6545 365.476 87.5182 364.158C80.4119 371.383 71.32 376.336 61.3954 378.387C63.9931 381.627 66.6929 384.764 69.5095 387.829C106.724 428.239 161.917 452.377 233.485 452.377C305.053 452.377 360.246 428.239 397.446 387.829C434.47 347.623 452.377 292.751 452.377 233.485C452.377 174.22 434.47 119.348 397.446 79.1419C360.232 38.7318 305.053 14.5938 233.5 14.5938C161.917 14.5938 106.724 38.7318 69.5095 79.1419C32.4852 119.348 14.5933 174.22 14.5933 233.485V234.244C22.5246 226.14 32.9261 220.903 44.1602 219.359V219.373Z" fill="black"/>
<path d="M86.249 338.079C84.1092 345.766 79.5139 352.543 73.1639 357.375C66.8139 362.207 59.0577 364.83 51.0781 364.844C41.4018 364.844 32.1219 361 25.2797 354.158C18.4376 347.316 14.5937 338.036 14.5937 328.359V269.984C14.4557 265.106 15.2973 260.25 17.0688 255.703C18.8402 251.156 21.5055 247.01 24.9071 243.511C28.3086 240.012 32.3773 237.231 36.8725 235.331C41.3677 233.432 46.1981 232.453 51.0781 232.453C55.958 232.453 60.7885 233.432 65.2837 235.331C69.7789 237.231 73.8475 240.012 77.2491 243.511C80.6506 247.01 83.3159 251.156 85.0874 255.703C86.8588 260.25 87.7004 265.106 87.5624 269.984V328.359C87.5624 331.716 87.11 334.985 86.249 338.079ZM160.633 93.6334V93.648L160.59 93.8815L160.341 94.9761C158.684 101.256 155.841 107.16 151.965 112.372C145.003 121.639 132.511 131.344 109.453 131.344C107.518 131.344 105.662 132.112 104.293 133.481C102.925 134.849 102.156 136.705 102.156 138.641C102.156 140.576 102.925 142.432 104.293 143.8C105.662 145.169 107.518 145.937 109.453 145.937C137.473 145.937 154.154 133.752 163.64 121.128C168.682 114.358 172.369 106.677 174.497 98.5078C174.636 97.9461 174.762 97.3817 174.877 96.8149L174.979 96.3187L175.008 96.1582V96.0998L175.023 96.0706C175.346 94.1624 174.898 92.2041 173.777 90.6263C172.656 89.0485 170.955 87.9805 169.047 87.6573C167.138 87.3341 165.18 87.7822 163.602 88.9029C162.025 90.0237 160.957 91.7253 160.633 93.6334V93.6334ZM306.41 93.8815L306.367 93.648C306.007 91.7774 304.93 90.1216 303.366 89.0341C301.802 87.9467 299.875 87.514 297.996 87.8284C296.118 88.1428 294.436 89.1794 293.312 90.7167C292.187 92.254 291.708 94.1703 291.977 96.056C291.364 93.8815 291.977 96.0706 291.977 96.0706V96.0998L291.992 96.1582L292.021 96.3041L292.05 96.5084L292.123 96.8149C292.211 97.2381 292.327 97.8073 292.502 98.5078C294.631 106.677 298.318 114.358 303.36 121.128C312.846 133.752 329.527 145.937 357.547 145.937C359.482 145.937 361.338 145.169 362.706 143.8C364.075 142.432 364.844 140.576 364.844 138.641C364.844 136.705 364.075 134.849 362.706 133.481C361.338 132.112 359.482 131.344 357.547 131.344C334.489 131.344 321.982 121.639 315.035 112.372C311.159 107.16 308.316 101.256 306.658 94.9761C306.568 94.6131 306.485 94.2482 306.41 93.8815V93.8815ZM204.312 218.906C204.312 224.656 203.18 230.349 200.98 235.661C198.78 240.972 195.555 245.799 191.489 249.864C187.424 253.93 182.597 257.155 177.286 259.355C171.974 261.555 166.281 262.687 160.531 262.687C154.782 262.687 149.089 261.555 143.777 259.355C138.465 257.155 133.639 253.93 129.573 249.864C125.508 245.799 122.283 240.972 120.083 235.661C117.882 230.349 116.75 224.656 116.75 218.906C116.75 207.295 121.363 196.159 129.573 187.948C137.784 179.738 148.92 175.125 160.531 175.125C172.143 175.125 183.279 179.738 191.489 187.948C199.7 196.159 204.312 207.295 204.312 218.906V218.906ZM306.469 262.687C318.08 262.687 329.216 258.075 337.427 249.864C345.637 241.654 350.25 230.518 350.25 218.906C350.25 207.295 345.637 196.159 337.427 187.948C329.216 179.738 318.08 175.125 306.469 175.125C294.857 175.125 283.721 179.738 275.511 187.948C267.3 196.159 262.687 207.295 262.687 218.906C262.687 230.518 267.3 241.654 275.511 249.864C283.721 258.075 294.857 262.687 306.469 262.687ZM179.401 345.974C176.665 343.237 175.128 339.526 175.128 335.656C175.128 331.786 176.665 328.075 179.401 325.338L179.416 325.309L179.445 325.295L179.488 325.251L179.605 325.134L179.897 324.842L180.787 324.04C181.731 323.225 182.704 322.446 183.706 321.705C186.143 319.866 189.617 317.56 194.141 315.298C203.218 310.774 216.381 306.469 233.5 306.469C250.618 306.469 263.782 310.759 272.859 315.298C277.383 317.56 280.857 319.866 283.308 321.705C284.624 322.688 285.89 323.735 287.103 324.842L287.395 325.134L287.511 325.251L287.555 325.295L287.584 325.309L287.599 325.338C290.284 328.071 291.786 331.749 291.783 335.579C291.78 339.41 290.271 343.085 287.581 345.813C284.892 348.54 281.238 350.101 277.408 350.159C273.578 350.216 269.879 348.766 267.109 346.12L266.993 346.018C264.773 344.23 262.365 342.688 259.812 341.421C254.296 338.633 245.569 335.656 233.5 335.656C221.431 335.656 212.704 338.662 207.187 341.406C204.634 342.678 202.226 344.224 200.007 346.018L199.891 346.12C197.141 348.792 193.45 350.275 189.616 350.248C185.782 350.22 182.112 348.685 179.401 345.974V345.974Z" fill="black"/>
</svg>
