<svg width="238" height="238" viewBox="0 0 238 238" fill="none" xmlns="http://www.w3.org/2000/svg">
<path d="M119 19.8333C64.4583 19.8333 19.8333 64.4582 19.8333 119C19.8333 173.542 64.4583 218.167 119 218.167C173.542 218.167 218.167 173.542 218.167 119C218.167 64.4582 173.542 19.8333 119 19.8333ZM119 198.333C75.2675 198.333 39.6667 162.732 39.6667 119C39.6667 75.2674 75.2675 39.6666 119 39.6666C162.732 39.6666 198.333 75.2674 198.333 119C198.333 162.732 162.732 198.333 119 198.333ZM164.518 75.1682L99.1667 140.519L73.4825 114.934L59.5 128.917L99.1667 168.583L178.5 89.2499L164.518 75.1682Z" fill="white"/>
</svg>
