<svg width="128" height="128" viewBox="0 0 128 128" fill="none" xmlns="http://www.w3.org/2000/svg">
<path d="M15.9999 21.3334C13.1709 21.3334 10.4578 22.4572 8.45745 24.4576C6.45706 26.458 5.33325 29.1711 5.33325 32V90.6667H15.9999C15.9999 94.9102 17.6856 98.9798 20.6862 101.98C23.6868 104.981 27.7565 106.667 31.9999 106.667C36.2434 106.667 40.313 104.981 43.3136 101.98C46.3142 98.9798 47.9999 94.9102 47.9999 90.6667H79.9999C79.9999 94.9102 81.6856 98.9798 84.6862 101.98C87.6868 104.981 91.7565 106.667 95.9999 106.667C100.243 106.667 104.313 104.981 107.314 101.98C110.314 98.9798 112 94.9102 112 90.6667H122.667V64L106.667 42.6667H90.6666V21.3334M53.3333 32L74.6666 53.3334L53.3333 74.6667V58.6667H21.3333V48H53.3333M90.6666 50.6667H104L114.507 64H90.6666M31.9999 82.6667C34.1217 82.6667 36.1565 83.5096 37.6568 85.0099C39.1571 86.5101 39.9999 88.545 39.9999 90.6667C39.9999 92.7884 39.1571 94.8233 37.6568 96.3236C36.1565 97.8239 34.1217 98.6667 31.9999 98.6667C29.8782 98.6667 27.8434 97.8239 26.3431 96.3236C24.8428 94.8233 23.9999 92.7884 23.9999 90.6667C23.9999 88.545 24.8428 86.5101 26.3431 85.0099C27.8434 83.5096 29.8782 82.6667 31.9999 82.6667M95.9999 82.6667C98.1217 82.6667 100.156 83.5096 101.657 85.0099C103.157 86.5101 104 88.545 104 90.6667C104 92.7884 103.157 94.8233 101.657 96.3236C100.156 97.8239 98.1217 98.6667 95.9999 98.6667C93.8782 98.6667 91.8434 97.8239 90.3431 96.3236C88.8428 94.8233 87.9999 92.7884 87.9999 90.6667C87.9999 88.545 88.8428 86.5101 90.3431 85.0099C91.8434 83.5096 93.8782 82.6667 95.9999 82.6667Z" fill="black"/>
</svg>
