<svg id="visual" viewBox="0 0 960 540" width="960" height="540" xmlns="http://www.w3.org/2000/svg" xmlns:xlink="http://www.w3.org/1999/xlink" version="1.1"><rect x="0" y="0" width="960" height="540" fill="#001220"></rect><path d="M0 229L8.5 247.3C17 265.7 34 302.3 50.8 308.7C67.7 315 84.3 291 101.2 281C118 271 135 275 151.8 273.8C168.7 272.7 185.3 266.3 202.2 262C219 257.7 236 255.3 252.8 248.7C269.7 242 286.3 231 303.2 246.8C320 262.7 337 305.3 353.8 325.3C370.7 345.3 387.3 342.7 404.2 337.5C421 332.3 438 324.7 454.8 320.5C471.7 316.3 488.3 315.7 505.2 306.2C522 296.7 539 278.3 555.8 272.8C572.7 267.3 589.3 274.7 606.2 276.3C623 278 640 274 656.8 263.8C673.7 253.7 690.3 237.3 707.2 251.8C724 266.3 741 311.7 757.8 314C774.7 316.3 791.3 275.7 808.2 251.8C825 228 842 221 858.8 234C875.7 247 892.3 280 909.2 284.2C926 288.3 943 263.7 951.5 251.3L960 239L960 541L951.5 541C943 541 926 541 909.2 541C892.3 541 875.7 541 858.8 541C842 541 825 541 808.2 541C791.3 541 774.7 541 757.8 541C741 541 724 541 707.2 541C690.3 541 673.7 541 656.8 541C640 541 623 541 606.2 541C589.3 541 572.7 541 555.8 541C539 541 522 541 505.2 541C488.3 541 471.7 541 454.8 541C438 541 421 541 404.2 541C387.3 541 370.7 541 353.8 541C337 541 320 541 303.2 541C286.3 541 269.7 541 252.8 541C236 541 219 541 202.2 541C185.3 541 168.7 541 151.8 541C135 541 118 541 101.2 541C84.3 541 67.7 541 50.8 541C34 541 17 541 8.5 541L0 541Z" fill="#fa7268"></path><path d="M0 271L8.5 288.5C17 306 34 341 50.8 342.8C67.7 344.7 84.3 313.3 101.2 304.3C118 295.3 135 308.7 151.8 313.2C168.7 317.7 185.3 313.3 202.2 319.2C219 325 236 341 252.8 334.7C269.7 328.3 286.3 299.7 303.2 287.2C320 274.7 337 278.3 353.8 272.3C370.7 266.3 387.3 250.7 404.2 267.2C421 283.7 438 332.3 454.8 335.8C471.7 339.3 488.3 297.7 505.2 296.8C522 296 539 336 555.8 339C572.7 342 589.3 308 606.2 306.2C623 304.3 640 334.7 656.8 334C673.7 333.3 690.3 301.7 707.2 293.3C724 285 741 300 757.8 305C774.7 310 791.3 305 808.2 303.3C825 301.7 842 303.3 858.8 296C875.7 288.7 892.3 272.3 909.2 274.3C926 276.3 943 296.7 951.5 306.8L960 317L960 541L951.5 541C943 541 926 541 909.2 541C892.3 541 875.7 541 858.8 541C842 541 825 541 808.2 541C791.3 541 774.7 541 757.8 541C741 541 724 541 707.2 541C690.3 541 673.7 541 656.8 541C640 541 623 541 606.2 541C589.3 541 572.7 541 555.8 541C539 541 522 541 505.2 541C488.3 541 471.7 541 454.8 541C438 541 421 541 404.2 541C387.3 541 370.7 541 353.8 541C337 541 320 541 303.2 541C286.3 541 269.7 541 252.8 541C236 541 219 541 202.2 541C185.3 541 168.7 541 151.8 541C135 541 118 541 101.2 541C84.3 541 67.7 541 50.8 541C34 541 17 541 8.5 541L0 541Z" fill="#f46767"></path><path d="M0 367L8.5 364.8C17 362.7 34 358.3 50.8 346.7C67.7 335 84.3 316 101.2 319.3C118 322.7 135 348.3 151.8 355C168.7 361.7 185.3 349.3 202.2 337.2C219 325 236 313 252.8 303.5C269.7 294 286.3 287 303.2 287.7C320 288.3 337 296.7 353.8 307.7C370.7 318.7 387.3 332.3 404.2 341.3C421 350.3 438 354.7 454.8 354.7C471.7 354.7 488.3 350.3 505.2 336.7C522 323 539 300 555.8 308C572.7 316 589.3 355 606.2 368.5C623 382 640 370 656.8 368C673.7 366 690.3 374 707.2 372.5C724 371 741 360 757.8 343.8C774.7 327.7 791.3 306.3 808.2 310C825 313.7 842 342.3 858.8 353.8C875.7 365.3 892.3 359.7 909.2 353.7C926 347.7 943 341.3 951.5 338.2L960 335L960 541L951.5 541C943 541 926 541 909.2 541C892.3 541 875.7 541 858.8 541C842 541 825 541 808.2 541C791.3 541 774.7 541 757.8 541C741 541 724 541 707.2 541C690.3 541 673.7 541 656.8 541C640 541 623 541 606.2 541C589.3 541 572.7 541 555.8 541C539 541 522 541 505.2 541C488.3 541 471.7 541 454.8 541C438 541 421 541 404.2 541C387.3 541 370.7 541 353.8 541C337 541 320 541 303.2 541C286.3 541 269.7 541 252.8 541C236 541 219 541 202.2 541C185.3 541 168.7 541 151.8 541C135 541 118 541 101.2 541C84.3 541 67.7 541 50.8 541C34 541 17 541 8.5 541L0 541Z" fill="#ee5c67"></path><path d="M0 406L8.5 402.5C17 399 34 392 50.8 379.8C67.7 367.7 84.3 350.3 101.2 348.8C118 347.3 135 361.7 151.8 362.2C168.7 362.7 185.3 349.3 202.2 349.3C219 349.3 236 362.7 252.8 375.3C269.7 388 286.3 400 303.2 407.7C320 415.3 337 418.7 353.8 407.3C370.7 396 387.3 370 404.2 356.3C421 342.7 438 341.3 454.8 342.8C471.7 344.3 488.3 348.7 505.2 354.8C522 361 539 369 555.8 380.5C572.7 392 589.3 407 606.2 407.8C623 408.7 640 395.3 656.8 393.7C673.7 392 690.3 402 707.2 394C724 386 741 360 757.8 355C774.7 350 791.3 366 808.2 367C825 368 842 354 858.8 361.8C875.7 369.7 892.3 399.3 909.2 396.2C926 393 943 357 951.5 339L960 321L960 541L951.5 541C943 541 926 541 909.2 541C892.3 541 875.7 541 858.8 541C842 541 825 541 808.2 541C791.3 541 774.7 541 757.8 541C741 541 724 541 707.2 541C690.3 541 673.7 541 656.8 541C640 541 623 541 606.2 541C589.3 541 572.7 541 555.8 541C539 541 522 541 505.2 541C488.3 541 471.7 541 454.8 541C438 541 421 541 404.2 541C387.3 541 370.7 541 353.8 541C337 541 320 541 303.2 541C286.3 541 269.7 541 252.8 541C236 541 219 541 202.2 541C185.3 541 168.7 541 151.8 541C135 541 118 541 101.2 541C84.3 541 67.7 541 50.8 541C34 541 17 541 8.5 541L0 541Z" fill="#e75167"></path><path d="M0 384L8.5 385.2C17 386.3 34 388.7 50.8 385.2C67.7 381.7 84.3 372.3 101.2 376.8C118 381.3 135 399.7 151.8 408.2C168.7 416.7 185.3 415.3 202.2 417.5C219 419.7 236 425.3 252.8 415.8C269.7 406.3 286.3 381.7 303.2 370.5C320 359.3 337 361.7 353.8 363.2C370.7 364.7 387.3 365.3 404.2 363.2C421 361 438 356 454.8 353.5C471.7 351 488.3 351 505.2 353.2C522 355.3 539 359.7 555.8 369.8C572.7 380 589.3 396 606.2 395.3C623 394.7 640 377.3 656.8 382.3C673.7 387.3 690.3 414.7 707.2 418.3C724 422 741 402 757.8 399.3C774.7 396.7 791.3 411.3 808.2 421.8C825 432.3 842 438.7 858.8 440.3C875.7 442 892.3 439 909.2 440.3C926 441.7 943 447.3 951.5 450.2L960 453L960 541L951.5 541C943 541 926 541 909.2 541C892.3 541 875.7 541 858.8 541C842 541 825 541 808.2 541C791.3 541 774.7 541 757.8 541C741 541 724 541 707.2 541C690.3 541 673.7 541 656.8 541C640 541 623 541 606.2 541C589.3 541 572.7 541 555.8 541C539 541 522 541 505.2 541C488.3 541 471.7 541 454.8 541C438 541 421 541 404.2 541C387.3 541 370.7 541 353.8 541C337 541 320 541 303.2 541C286.3 541 269.7 541 252.8 541C236 541 219 541 202.2 541C185.3 541 168.7 541 151.8 541C135 541 118 541 101.2 541C84.3 541 67.7 541 50.8 541C34 541 17 541 8.5 541L0 541Z" fill="#df4667"></path><path d="M0 427L8.5 421C17 415 34 403 50.8 400.2C67.7 397.3 84.3 403.7 101.2 411.7C118 419.7 135 429.3 151.8 438.2C168.7 447 185.3 455 202.2 455.8C219 456.7 236 450.3 252.8 446.3C269.7 442.3 286.3 440.7 303.2 442.2C320 443.7 337 448.3 353.8 449.8C370.7 451.3 387.3 449.7 404.2 443.8C421 438 438 428 454.8 420.2C471.7 412.3 488.3 406.7 505.2 402.2C522 397.7 539 394.3 555.8 405.7C572.7 417 589.3 443 606.2 453.5C623 464 640 459 656.8 460.3C673.7 461.7 690.3 469.3 707.2 466C724 462.7 741 448.3 757.8 435.5C774.7 422.7 791.3 411.3 808.2 416C825 420.7 842 441.3 858.8 452C875.7 462.7 892.3 463.3 909.2 462C926 460.7 943 457.3 951.5 455.7L960 454L960 541L951.5 541C943 541 926 541 909.2 541C892.3 541 875.7 541 858.8 541C842 541 825 541 808.2 541C791.3 541 774.7 541 757.8 541C741 541 724 541 707.2 541C690.3 541 673.7 541 656.8 541C640 541 623 541 606.2 541C589.3 541 572.7 541 555.8 541C539 541 522 541 505.2 541C488.3 541 471.7 541 454.8 541C438 541 421 541 404.2 541C387.3 541 370.7 541 353.8 541C337 541 320 541 303.2 541C286.3 541 269.7 541 252.8 541C236 541 219 541 202.2 541C185.3 541 168.7 541 151.8 541C135 541 118 541 101.2 541C84.3 541 67.7 541 50.8 541C34 541 17 541 8.5 541L0 541Z" fill="#d73b67"></path><path d="M0 486L8.5 478.3C17 470.7 34 455.3 50.8 456.7C67.7 458 84.3 476 101.2 476C118 476 135 458 151.8 450.3C168.7 442.7 185.3 445.3 202.2 447.3C219 449.3 236 450.7 252.8 451.8C269.7 453 286.3 454 303.2 460.7C320 467.3 337 479.7 353.8 487.3C370.7 495 387.3 498 404.2 493.3C421 488.7 438 476.3 454.8 471.8C471.7 467.3 488.3 470.7 505.2 476.5C522 482.3 539 490.7 555.8 483.8C572.7 477 589.3 455 606.2 445.2C623 435.3 640 437.7 656.8 442.2C673.7 446.7 690.3 453.3 707.2 463C724 472.7 741 485.3 757.8 480.8C774.7 476.3 791.3 454.7 808.2 447.7C825 440.7 842 448.3 858.8 458.2C875.7 468 892.3 480 909.2 479.7C926 479.3 943 466.7 951.5 460.3L960 454L960 541L951.5 541C943 541 926 541 909.2 541C892.3 541 875.7 541 858.8 541C842 541 825 541 808.2 541C791.3 541 774.7 541 757.8 541C741 541 724 541 707.2 541C690.3 541 673.7 541 656.8 541C640 541 623 541 606.2 541C589.3 541 572.7 541 555.8 541C539 541 522 541 505.2 541C488.3 541 471.7 541 454.8 541C438 541 421 541 404.2 541C387.3 541 370.7 541 353.8 541C337 541 320 541 303.2 541C286.3 541 269.7 541 252.8 541C236 541 219 541 202.2 541C185.3 541 168.7 541 151.8 541C135 541 118 541 101.2 541C84.3 541 67.7 541 50.8 541C34 541 17 541 8.5 541L0 541Z" fill="#cf3068"></path><path d="M0 504L8.5 500.3C17 496.7 34 489.3 50.8 486.7C67.7 484 84.3 486 101.2 492.7C118 499.3 135 510.7 151.8 511.3C168.7 512 185.3 502 202.2 499.7C219 497.3 236 502.7 252.8 501.8C269.7 501 286.3 494 303.2 489.7C320 485.3 337 483.7 353.8 481.3C370.7 479 387.3 476 404.2 476.3C421 476.7 438 480.3 454.8 482.8C471.7 485.3 488.3 486.7 505.2 487C522 487.3 539 486.7 555.8 484C572.7 481.3 589.3 476.7 606.2 473.8C623 471 640 470 656.8 478.2C673.7 486.3 690.3 503.7 707.2 504.2C724 504.7 741 488.3 757.8 481.7C774.7 475 791.3 478 808.2 480.3C825 482.7 842 484.3 858.8 483.8C875.7 483.3 892.3 480.7 909.2 480.3C926 480 943 482 951.5 483L960 484L960 541L951.5 541C943 541 926 541 909.2 541C892.3 541 875.7 541 858.8 541C842 541 825 541 808.2 541C791.3 541 774.7 541 757.8 541C741 541 724 541 707.2 541C690.3 541 673.7 541 656.8 541C640 541 623 541 606.2 541C589.3 541 572.7 541 555.8 541C539 541 522 541 505.2 541C488.3 541 471.7 541 454.8 541C438 541 421 541 404.2 541C387.3 541 370.7 541 353.8 541C337 541 320 541 303.2 541C286.3 541 269.7 541 252.8 541C236 541 219 541 202.2 541C185.3 541 168.7 541 151.8 541C135 541 118 541 101.2 541C84.3 541 67.7 541 50.8 541C34 541 17 541 8.5 541L0 541Z" fill="#c62368"></path></svg>