<svg id="visual" viewBox="0 0 900 600" width="900" height="600" xmlns="http://www.w3.org/2000/svg" xmlns:xlink="http://www.w3.org/1999/xlink" version="1.1"><rect x="0" y="0" width="900" height="600" fill="#060522"></rect><path d="M0 300L129 288L257 186L386 194L514 264L643 233L771 302L900 320L900 601L771 601L643 601L514 601L386 601L257 601L129 601L0 601Z" fill="#0b5d06"></path><path d="M0 326L129 284L257 264L386 353L514 367L643 263L771 338L900 349L900 601L771 601L643 601L514 601L386 601L257 601L129 601L0 601Z" fill="#0b670c"></path><path d="M0 435L129 369L257 308L386 378L514 327L643 386L771 359L900 395L900 601L771 601L643 601L514 601L386 601L257 601L129 601L0 601Z" fill="#097213"></path><path d="M0 425L129 392L257 417L386 386L514 408L643 388L771 419L900 418L900 601L771 601L643 601L514 601L386 601L257 601L129 601L0 601Z" fill="#067c1a"></path><path d="M0 471L129 511L257 507L386 547L514 531L643 511L771 513L900 516L900 601L771 601L643 601L514 601L386 601L257 601L129 601L0 601Z" fill="#008721"></path></svg>