<svg width="50" height="52" viewBox="0 0 50 52" fill="none" xmlns="http://www.w3.org/2000/svg">
<path d="M42.501 24.0703H14.3429L31.1963 8.63281C31.4658 8.38398 31.3022 7.92188 30.9461 7.92188H26.687C26.4993 7.92188 26.3212 7.99297 26.1817 8.11992L7.99512 24.7711C7.82855 24.9234 7.69497 25.1118 7.60341 25.3234C7.51186 25.535 7.46448 25.7649 7.46448 25.9975C7.46448 26.2301 7.51186 26.4599 7.60341 26.6715C7.69497 26.8831 7.82855 27.0715 7.99512 27.2238L26.2876 43.9766C26.3597 44.0426 26.4464 44.0781 26.5378 44.0781H30.9413C31.2974 44.0781 31.461 43.6109 31.1915 43.3672L14.3429 27.9297H42.501C42.7127 27.9297 42.886 27.7469 42.886 27.5234V24.4766C42.886 24.2531 42.7127 24.0703 42.501 24.0703Z" fill="white"/>
</svg>
